<svg width="1000" height="400" viewBox="0 0 1000 400" fill="none" xmlns="http://www.w3.org/2000/svg">
<path d="M223.71 180.81C223.71 168.33 208.37 168.46 208.37 168.46H192.77V192.25H208.37C208.37 192.25 223.71 192.25 223.71 180.81ZM243.6 179.64C243.6 191.73 237.1 198.62 229.17 201.87C245.68 207.46 245.03 223.58 245.03 223.58C245.03 252.57 215.39 253.87 208.37 253.87H192.9V234.89H208.37C214.87 234.89 225.14 233.07 225.14 223.06C225.14 210.84 208.37 211.62 208.37 211.62H192.77H173.01V151.04C173.01 150.52 173.66 149.87 174.44 149.87H208.37C208.37 149.87 243.6 149.09 243.6 179.64ZM304.834 234.5C305.744 234.5 306.264 235.15 306.264 235.8V252.7C306.264 253.22 305.744 253.87 304.834 253.87H250.104C249.324 253.87 248.674 253.22 248.674 252.7V234.5H268.564H304.834ZM268.564 214.61H248.674V151.04C248.674 150.52 249.324 149.87 250.104 149.87H267.264C268.044 149.87 268.564 150.52 268.564 151.04V214.61ZM369.031 202.13C369.031 207.46 364.741 211.88 359.281 211.88C353.821 211.88 349.531 207.46 349.531 202.13C349.531 196.67 353.821 192.25 359.281 192.25C364.741 192.25 369.031 196.67 369.031 202.13ZM409.331 201.74C409.331 227.74 392.561 253.87 359.411 253.87C325.741 253.87 309.231 227.74 309.231 201.74C309.231 175.87 325.741 149.87 359.411 149.87C392.561 149.87 409.331 175.87 409.331 201.74ZM389.831 202.13C389.831 185.1 379.561 168.2 359.411 168.2C339.001 168.2 328.861 185.1 328.861 202.13C328.861 218.9 339.001 235.67 359.411 235.67C379.561 235.67 389.831 218.9 389.831 202.13ZM461.931 196.15C472.851 201.22 478.831 211.36 478.831 223.58C478.831 243.08 463.231 253.87 446.591 253.87C446.591 253.87 446.591 253.87 446.461 253.87V235.15C446.591 235.15 446.591 235.15 446.591 235.15C453.481 235.15 459.591 230.47 459.591 223.58C459.591 215.91 452.441 211.23 446.591 210.97C445.681 210.97 438.661 210.97 431.121 207.46C420.331 202.52 414.221 193.29 414.221 181.2C414.221 161.7 429.951 149.87 446.591 149.87C464.401 149.87 478.181 161.83 478.441 179.51C478.571 179.9 477.921 180.55 477.011 180.55H460.761C459.981 180.55 459.331 179.9 459.331 179.51C459.071 172.1 453.351 168.59 446.591 168.59C439.441 168.59 433.591 172.88 433.591 181.2C433.591 188.74 439.961 192.64 446.591 192.64C447.241 192.64 454.521 192.64 461.931 196.15Z" fill="#FF6F07"/>
<path d="M529.851 196.15C540.771 201.22 546.751 211.36 546.751 223.58C546.751 243.08 531.151 253.87 514.511 253.87C514.511 253.87 514.511 253.87 514.381 253.87V235.15C514.511 235.15 514.511 235.15 514.511 235.15C521.401 235.15 527.511 230.47 527.511 223.58C527.511 215.91 520.361 211.23 514.511 210.97C513.601 210.97 506.581 210.97 499.041 207.46C488.251 202.52 482.141 193.29 482.141 181.2C482.141 161.7 497.871 149.87 514.511 149.87C532.321 149.87 546.101 161.83 546.361 179.51C546.491 179.9 545.841 180.55 544.931 180.55H528.681C527.901 180.55 527.251 179.9 527.251 179.51C526.991 172.1 521.271 168.59 514.511 168.59C507.361 168.59 501.511 172.88 501.511 181.2C501.511 188.74 507.881 192.64 514.511 192.64C515.161 192.64 522.441 192.64 529.851 196.15ZM609.861 202.13C609.861 207.46 605.571 211.88 600.111 211.88C594.651 211.88 590.361 207.46 590.361 202.13C590.361 196.67 594.651 192.25 600.111 192.25C605.571 192.25 609.861 196.67 609.861 202.13ZM650.161 201.74C650.161 227.74 633.391 253.87 600.241 253.87C566.571 253.87 550.061 227.74 550.061 201.74C550.061 175.87 566.571 149.87 600.241 149.87C633.391 149.87 650.161 175.87 650.161 201.74ZM630.661 202.13C630.661 185.1 620.391 168.2 600.241 168.2C579.831 168.2 569.691 185.1 569.691 202.13C569.691 218.9 579.831 235.67 600.241 235.67C620.391 235.67 630.661 218.9 630.661 202.13ZM748.131 228.78V195.76L721.611 248.93C721.481 249.32 720.831 249.71 720.441 249.71H704.451C704.061 249.71 703.281 249.32 703.151 248.93L674.941 194.33V252.7C674.941 253.22 674.291 253.87 673.511 253.87H656.351C655.441 253.87 655.051 253.22 655.051 252.7V151.04C655.051 150.52 655.441 149.87 656.351 149.87H673.771C674.161 149.87 674.941 150.26 675.071 150.65L712.381 226.83L747.871 150.65C748.131 150.26 748.781 149.87 749.301 149.87H766.461C767.371 149.87 767.891 150.52 767.891 151.04V228.78H748.131Z" fill="white"/>
<path d="M669.56 288.12C667.4 288.12 665.48 287.627 663.8 286.64C662.147 285.653 660.853 284.28 659.92 282.52C658.987 280.733 658.52 278.707 658.52 276.44C658.52 274.227 658.987 272.253 659.92 270.52C660.853 268.787 662.147 267.427 663.8 266.44C665.48 265.453 667.4 264.96 669.56 264.96C672.04 264.96 674.16 265.573 675.92 266.8C677.68 268 678.88 269.64 679.52 271.72V271.88C679.52 272.173 679.36 272.32 679.04 272.32H675.36C675.093 272.32 674.893 272.173 674.76 271.88C674.333 270.867 673.667 270.08 672.76 269.52C671.853 268.96 670.787 268.68 669.56 268.68C668.28 268.68 667.147 269.013 666.16 269.68C665.173 270.32 664.4 271.227 663.84 272.4C663.28 273.573 663 274.92 663 276.44C663 278.013 663.28 279.4 663.84 280.6C664.4 281.8 665.173 282.733 666.16 283.4C667.147 284.067 668.28 284.4 669.56 284.4C670.893 284.4 672.027 284.08 672.96 283.44C673.893 282.8 674.547 281.907 674.92 280.76C675 280.493 675.2 280.36 675.52 280.36H679.2C679.573 280.36 679.733 280.547 679.68 280.92C679.093 283.16 677.88 284.92 676.04 286.2C674.227 287.48 672.067 288.12 669.56 288.12ZM694.133 288.12C691.973 288.12 690.04 287.627 688.333 286.64C686.653 285.653 685.333 284.28 684.373 282.52C683.44 280.733 682.973 278.707 682.973 276.44C682.973 274.227 683.44 272.253 684.373 270.52C685.333 268.787 686.653 267.427 688.333 266.44C690.04 265.453 691.973 264.96 694.133 264.96C696.293 264.96 698.213 265.453 699.893 266.44C701.6 267.427 702.92 268.787 703.853 270.52C704.813 272.253 705.293 274.227 705.293 276.44C705.293 278.68 704.827 280.693 703.893 282.48C702.96 284.24 701.64 285.627 699.933 286.64C698.253 287.627 696.32 288.12 694.133 288.12ZM694.133 284.28C695.413 284.28 696.56 283.947 697.573 283.28C698.587 282.613 699.373 281.68 699.933 280.48C700.52 279.28 700.813 277.933 700.813 276.44C700.813 275 700.52 273.707 699.933 272.56C699.373 271.387 698.587 270.467 697.573 269.8C696.56 269.133 695.413 268.8 694.133 268.8C692.853 268.8 691.707 269.133 690.693 269.8C689.68 270.44 688.88 271.347 688.293 272.52C687.733 273.667 687.453 274.973 687.453 276.44C687.453 277.96 687.733 279.32 688.293 280.52C688.88 281.693 689.68 282.613 690.693 283.28C691.707 283.947 692.853 284.28 694.133 284.28ZM718.714 288.12C716.768 288.12 715.048 287.64 713.554 286.68C712.061 285.693 710.901 284.32 710.074 282.56C709.274 280.8 708.874 278.8 708.874 276.56C708.874 274.293 709.274 272.28 710.074 270.52C710.901 268.76 712.061 267.4 713.554 266.44C715.048 265.453 716.768 264.96 718.714 264.96C720.021 264.96 721.154 265.173 722.114 265.6C723.101 266 724.034 266.72 724.914 267.76C725.048 267.92 725.168 268 725.274 268C725.434 268 725.514 267.853 725.514 267.56V257.68C725.514 257.333 725.688 257.16 726.034 257.16H729.394C729.741 257.16 729.914 257.333 729.914 257.68V287.16C729.914 287.507 729.741 287.68 729.394 287.68H726.034C725.688 287.68 725.514 287.507 725.514 287.16V285.44C725.514 285.2 725.434 285.08 725.274 285.08C725.168 285.08 725.048 285.147 724.914 285.28C724.008 286.32 723.074 287.053 722.114 287.48C721.154 287.907 720.021 288.12 718.714 288.12ZM719.514 284.28C720.741 284.28 721.834 283.96 722.794 283.32C723.781 282.653 724.541 281.733 725.074 280.56C725.634 279.387 725.914 278.053 725.914 276.56C725.914 275.067 725.634 273.733 725.074 272.56C724.541 271.36 723.781 270.44 722.794 269.8C721.834 269.133 720.741 268.8 719.514 268.8C717.621 268.8 716.101 269.533 714.954 271C713.834 272.44 713.274 274.293 713.274 276.56C713.274 278.827 713.834 280.68 714.954 282.12C716.101 283.56 717.621 284.28 719.514 284.28ZM744.483 288.12C742.323 288.12 740.403 287.627 738.723 286.64C737.043 285.627 735.736 284.253 734.803 282.52C733.87 280.76 733.403 278.8 733.403 276.64C733.403 274.613 733.816 272.707 734.643 270.92C735.496 269.133 736.75 267.693 738.403 266.6C740.056 265.507 742.043 264.96 744.363 264.96C746.336 264.96 748.15 265.387 749.803 266.24C751.483 267.093 752.83 268.373 753.843 270.08C754.856 271.76 755.363 273.813 755.363 276.24V276.92C755.363 277.267 755.19 277.44 754.843 277.44H738.403C738.243 277.44 738.123 277.493 738.043 277.6C737.963 277.68 737.936 277.8 737.963 277.96C738.07 278.6 738.256 279.227 738.523 279.84C739.056 281.2 739.856 282.28 740.923 283.08C741.99 283.88 743.203 284.28 744.563 284.28C745.896 284.28 747.043 283.96 748.003 283.32C748.99 282.653 749.736 281.787 750.243 280.72C750.35 280.48 750.536 280.36 750.803 280.36H754.363C754.55 280.36 754.683 280.4 754.763 280.48C754.843 280.56 754.87 280.667 754.843 280.8C754.07 282.987 752.803 284.76 751.043 286.12C749.31 287.453 747.123 288.12 744.483 288.12ZM750.203 273.88C750.39 273.88 750.523 273.84 750.603 273.76C750.683 273.653 750.71 273.507 750.683 273.32C750.523 272.653 750.336 272.133 750.123 271.76C749.59 270.747 748.816 269.973 747.803 269.44C746.816 268.88 745.723 268.6 744.523 268.6C743.27 268.6 742.163 268.88 741.203 269.44C740.243 269.973 739.483 270.747 738.923 271.76C738.63 272.267 738.416 272.787 738.283 273.32C738.283 273.347 738.27 273.373 738.243 273.4C738.243 273.427 738.256 273.453 738.283 273.48C738.283 273.747 738.443 273.88 738.763 273.88H750.203ZM760.233 287.68C759.887 287.68 759.713 287.507 759.713 287.16V265.92C759.713 265.573 759.887 265.4 760.233 265.4H763.593C763.94 265.4 764.113 265.573 764.113 265.92V267.32C764.113 267.613 764.193 267.76 764.353 267.76C764.487 267.76 764.607 267.68 764.713 267.52C765.567 266.613 766.487 265.96 767.473 265.56C768.46 265.16 769.58 264.96 770.833 264.96C771.18 264.96 771.353 265.133 771.353 265.48V268.76C771.353 269.107 771.18 269.28 770.833 269.28H770.153C768.367 269.28 766.98 269.773 765.993 270.76C764.74 271.96 764.113 273.933 764.113 276.68V287.16C764.113 287.507 763.94 287.68 763.593 287.68H760.233Z" fill="white"/>
</svg>
