<svg width="236" height="24" viewBox="0 0 236 24" fill="none" xmlns="http://www.w3.org/2000/svg">
<path d="M24.6577 23.6685H20.6592L20.3234 23.3372V10.3389H19.9921L14.6593 23.3372L14.328 23.6685H10.6609L10.3296 23.3372L4.99687 10.3389H4.66557V23.3372L4.32969 23.6685H0.331271L0 23.3372V0.671814L0.331271 0.335938H5.33274L5.66404 0.671814L12.3311 17.0014H12.667L19.3295 0.671814L19.6654 0.335938H24.6623L24.9981 0.671814V23.3372L24.6577 23.6685Z" fill="#B8D432"/>
<path d="M47.8981 23.6688H44.8981L44.5669 23.3375L42.9012 19.0032L42.2341 18.6719H33.9013L33.2342 19.0032L31.5685 23.3375L31.2372 23.6688H28.2373L27.906 23.3375V20.0062L35.5716 0.676697L35.9074 0.34082H40.2417L40.573 0.676697L48.2386 20.0062V23.3375L47.8981 23.6688ZM38.2356 6.33613H37.9043L34.9044 14.333L35.2357 14.6643H40.8997L41.2356 14.333L38.2356 6.33613Z" fill="#B8D432"/>
<path d="M65.4741 14.0009V14.3321L69.8084 19.9962V23.3274L69.4771 23.6587H67.4756L66.8084 23.3274L60.1413 14.6634L59.4742 14.3321H56.1429L55.8116 14.6634V23.3274L55.4757 23.6587H51.4773L51.146 23.3274V0.662076L51.4773 0.326172H62.4741C67.1397 0.326172 70.4709 7.32456 70.4709 7.32456C70.4709 7.32456 68.1427 13.3337 65.4741 14.0009ZM62.4741 4.3338H56.1429L55.8116 4.66507V9.99784L56.1429 10.3291H62.4741C64.4756 10.3291 65.8054 9.66196 65.8054 7.32917C65.8054 4.99637 64.4756 4.3338 62.4741 4.3338Z" fill="#B8D432"/>
<path d="M90.7957 23.6685H88.463L87.7958 23.3372L80.4661 14.3373H80.1303L77.7974 16.6701V23.3372L77.4616 23.6685H73.4631L73.1318 23.3372V0.671814L73.4631 0.335938H77.4616L77.7974 0.671814V10.3389H78.1287L87.7958 0.671814L88.463 0.335938H90.1286L90.4599 0.671814V4.00306L83.7928 10.6702V11.0014L91.127 20.0013V23.3326L90.7957 23.6685Z" fill="#B8D432"/>
<path d="M160.31 23.9997C153.311 23.9997 148.977 18.9982 148.977 11.9998C148.977 5.00145 153.311 0 160.31 0C167.308 0 171.642 5.00145 171.642 11.9998C171.642 18.9982 167.308 23.9997 160.31 23.9997ZM160.31 4.003C155.975 4.003 153.647 11.9998 153.647 11.9998C153.647 11.9998 155.98 19.9967 160.31 19.9967C164.644 19.9967 166.977 16.6654 166.977 11.9998C166.977 7.33425 164.644 4.003 160.31 4.003Z" fill="#B8D432"/>
<path d="M188.17 14.0009V14.3321L192.504 19.9962V23.3274L192.173 23.6587H190.171L189.504 23.3274L182.837 14.6634L182.17 14.3321H178.838L178.507 14.6634V23.3274L178.171 23.6587H174.173L173.842 23.3274V0.662076L174.173 0.326172H185.17C189.835 0.326172 193.166 2.65898 193.166 7.32456C193.171 11.0009 190.838 13.3337 188.17 14.0009ZM185.17 4.3338H178.838L178.507 4.66507V9.99784L178.838 10.3291H185.17C187.171 10.3291 188.501 9.66196 188.501 7.32917C188.501 4.99637 187.171 4.3338 185.17 4.3338Z" fill="#B8D432"/>
<path d="M213.955 23.6685H211.623L210.955 23.3372L203.621 14.3373H203.29L200.957 16.6701V23.3372L200.626 23.6685H196.627L196.296 23.3372V0.671814L196.627 0.335938H200.626L200.957 0.671814V10.3389H201.293L210.96 0.671814L211.627 0.335938H213.293L213.624 0.671814V4.00306L206.957 10.6702V11.0014L214.287 20.0013V23.3326L213.955 23.6685Z" fill="#B8D432"/>
<path d="M225.655 24C218.988 24 215.988 20.6688 215.988 16.3345L216.319 16.0032H220.318L220.653 16.3345C220.653 18.6673 221.983 20.0016 225.986 20.0016C228.986 20.0016 230.652 19.0031 230.652 17.0016C230.652 14.6688 229.317 14.0017 224.652 13.3345C219.986 12.6673 216.319 11.0017 216.319 6.3361C216.319 3.00485 218.983 0.00488281 225.319 0.00488281C231.655 0.00488281 234.319 3.00486 234.319 7.00327L233.988 7.33457H229.989L229.658 7.00327C229.658 5.00176 228.659 4.0033 224.992 4.0033C221.992 4.0033 220.994 5.00176 220.994 6.3361C220.994 8.33301 222.328 9.00017 226.994 9.66734C231.659 10.3345 235.327 12.3314 235.327 16.997C235.322 20.6688 232.653 24 225.655 24Z" fill="#B8D432"/>
<path d="M99.5923 0.805266L98.718 0.335938H98.2579H97.1905H95.1015L94.7703 0.671814V23.3372L95.1015 23.6685H99.1L99.4313 23.3372V18.7406H108.123L111.887 23.3372L112.554 23.6685H114.887L115.222 23.3372V20.0059C109.118 12.5076 105.696 8.3036 99.5923 0.805266ZM99.4313 14.6686V8.13493L104.387 14.1855L104.511 14.3373L104.782 14.6686H99.4313Z" fill="#B8D432"/>
<path d="M146.285 0.335938H142.286L141.955 0.671814V15.8419L137.018 9.81894L136.894 9.6671L129.523 0.667208L128.856 0.335938H128.649H126.523H124.646L124.314 0.671814V15.8327L119.386 9.81894L119.262 9.6671L111.891 0.667208L111.224 0.335938H108.891L108.555 0.667208V4.00306L124.314 23.351V23.3326L124.981 23.6685H126.587H128.649L128.98 23.3326V7.43093L141.951 23.3556L142.576 23.6685H144.219H146.285L146.621 23.3326V0.671814L146.285 0.335938Z" fill="#B8D432"/>
</svg>
