<svg width="201" height="201" viewBox="0 0 201 201" fill="none" xmlns="http://www.w3.org/2000/svg">
<path d="M100.71 200.94C155.938 200.94 200.71 156.168 200.71 100.94C200.71 45.711 155.938 0.939911 100.71 0.939911C45.4815 0.939911 0.709991 45.711 0.709991 100.94C0.709991 156.168 45.4815 200.94 100.71 200.94Z" fill="black"/>
<path d="M123.793 77.986C123.793 61.621 103.677 61.791 103.677 61.791H83.221V92.987H103.677C103.677 92.987 123.793 92.987 123.793 77.986ZM149.875 76.452C149.875 92.305 141.351 101.34 130.953 105.602C152.602 112.932 151.75 134.071 151.75 134.071C151.75 172.085 112.883 173.79 103.677 173.79H83.391V148.901H103.677C112.201 148.901 125.668 146.515 125.668 133.389C125.668 117.364 103.677 118.387 103.677 118.387H83.221H57.3096V38.948C57.3096 38.266 58.1619 37.414 59.1847 37.414H103.677C103.677 37.414 149.875 36.391 149.875 76.452Z" fill="#FF6F07"/>
</svg>
