<svg width="246" height="400" viewBox="0 0 246 400" fill="none" xmlns="http://www.w3.org/2000/svg">
<path d="M121.71 294.94C176.938 294.94 221.71 250.168 221.71 194.94C221.71 139.711 176.938 94.9399 121.71 94.9399C66.4815 94.9399 21.71 139.711 21.71 194.94C21.71 250.168 66.4815 294.94 121.71 294.94Z" fill="black"/>
<path d="M144.793 171.986C144.793 155.621 124.677 155.791 124.677 155.791H104.221V186.987H124.677C124.677 186.987 144.793 186.987 144.793 171.986ZM170.875 170.452C170.875 186.305 162.351 195.34 151.953 199.602C173.602 206.932 172.75 228.071 172.75 228.071C172.75 266.085 133.883 267.79 124.677 267.79H104.391V242.901H124.677C133.201 242.901 146.668 240.515 146.668 227.389C146.668 211.364 124.677 212.387 124.677 212.387H104.221H78.3096V132.948C78.3096 132.266 79.1619 131.414 80.1847 131.414H124.677C124.677 131.414 170.875 130.391 170.875 170.452Z" fill="#FF6F07"/>
</svg>
