<svg width="300" height="102" viewBox="0 0 300 102" fill="none" xmlns="http://www.w3.org/2000/svg">
<path d="M297.82 0H280.42L278.98 1.46V67.4L257.54 41.22L257 40.56L224.94 1.44L222.04 0H221.14H211.9H203.76L202.3 1.46V67.36L180.9 41.22L180.36 40.56L148.3 1.44L145.4 0H135.26L133.82 1.44V15.94L202.3 100.04V99.96L205.2 101.42H212.18H221.14L222.58 99.96V30.84L278.96 100.06L281.7 101.42H288.82H297.82L299.26 99.96V1.46L297.82 0Z" fill="#B8D432"/>
<path d="M96.94 1.44L94.04 0H87.08H78.1201L76.66 1.44V70.58L20.3 1.34L17.5601 0H10.44H1.44L0 1.44V99.96L1.44 101.42H18.84L20.28 99.96V34L41.72 60.18L42.26 60.84L74.32 99.96L77.22 101.42H78.1201H87.36H95.5L96.94 99.96V34.04L118.36 60.18L118.9 60.84L150.96 99.96L153.86 101.42H164L165.44 99.96V85.48L96.94 1.36V1.44Z" fill="#B8D432"/>
</svg>
